# xmcd
#
# Track frame offsets:
#	150
#	7082
#	19122
#	33987
#	45540
#	59537
#	71790
#	84027
#	100227
#	115175
#	128290
#	138587
#	151332
#	165597
#	178450
#	191285
#	201790
#	212620
#	225032
#	237680
#	260525
#	273377
#	288765
#	301147
#
# Disc length: 4132 seconds
# Revision: 0
# Processed by: cddbd v1.5.2PL0 Copyright (c) Steve Scherf et al.
# Submitted via: dBpowerAMP V12.0
#
DISCID=43102218
DTITLE=Bob Wills and His Texas Playboys - For the Last Time
DYEAR=1974
DGENRE=Western Swing
TTITLE0=Playboy Theme
TTITLE1=Yearning (Just for You)
TTITLE2=Faded Love
TTITLE3=What Makes Bob Holler
TTITLE4=Stay All Night (Stay a Little Longer)
TTITLE5=Goin' Away Party
TTITLE6=Big Ball's in Cowtown
TTITLE7=Keeper of My Heart
TTITLE8=Twin Guitar Boogie
TTITLE9=Bubbles in My Beer
TTITLE10=Blue Bonnet Lane
TTITLE11=When You Leave Amarillo (Turn Out the Lights)
TTITLE12=San Antonio Rose
TTITLE13=I Wonder If You Feel the Way I Do
TTITLE14=My Shoes Keep Walking Back to You
TTITLE15=Miss Molly
TTITLE16=I Can`t Go On This Way
TTITLE17=That's What I Like 'Bout the South
TTITLE18=Silver Lake Blues
TTITLE19=Milk Cow Blues
TTITLE20=Comin' Down from Denver
TTITLE21=Baby, That Would Sure Go Good
TTITLE22=She's Really Gone
TTITLE23=Crippled Turkey
EXTD=
EXTT0=
EXTT1=
EXTT2=
EXTT3=
EXTT4=
EXTT5=
EXTT6=
EXTT7=
EXTT8=
EXTT9=
EXTT10=
EXTT11=
EXTT12=
EXTT13=
EXTT14=
EXTT15=
EXTT16=
EXTT17=
EXTT18=
EXTT19=
EXTT20=
EXTT21=
EXTT22=
EXTT23=
PLAYORDER=
